<?xml version="1.0" standalone="no"?>
<!-- Generator: Adobe Fireworks 10, Export SVG Extension by Aaron Beall (http://fireworks.abeall.com) . Version: 0.6.1  -->
<!DOCTYPE svg PUBLIC "-//W3C//DTD SVG 1.1//EN" "http://www.w3.org/Graphics/SVG/1.1/DTD/svg11.dtd">
<svg id="Untitled-Page%201" viewBox="0 0 16 128" style="background-color:#ffffff00" version="1.1"
	xmlns="http://www.w3.org/2000/svg" xmlns:xlink="http://www.w3.org/1999/xlink" xml:space="preserve"
	x="0px" y="0px" width="16px" height="128px"
>
	<g id="Layer%201">
		<g>
			<path d="M 15.661 4.414 C 15.62 4.32 15.546 4.244 15.452 4.206 C 15.358 4.166 15.251 4.166 15.157 4.206 C 15.109 4.225 15.067 4.254 15.032 4.289 L 4.394 14.927 C 4.359 14.961 4.331 15.004 4.311 15.052 C 4.273 15.147 4.273 15.254 4.311 15.347 C 4.35 15.442 4.425 15.517 4.52 15.556 C 4.567 15.577 4.617 15.585 4.667 15.585 L 15.306 15.585 C 15.518 15.585 15.692 15.413 15.692 15.2 L 15.692 4.563 C 15.69 4.511 15.681 4.462 15.661 4.414 L 15.661 4.414 L 15.661 4.414 ZM 13.447 12.332 C 13.447 12.394 13.43 12.45 13.405 12.502 C 13.429 12.553 13.447 12.608 13.447 12.67 C 13.447 12.883 13.275 13.056 13.061 13.056 L 9.855 13.056 C 9.804 13.056 9.754 13.046 9.707 13.027 C 9.613 12.987 9.538 12.912 9.499 12.818 C 9.459 12.725 9.459 12.617 9.499 12.523 C 9.519 12.475 9.547 12.433 9.582 12.396 L 12.788 9.191 C 12.824 9.154 12.866 9.127 12.914 9.106 C 13.008 9.068 13.115 9.068 13.208 9.106 C 13.303 9.146 13.378 9.221 13.417 9.316 C 13.438 9.363 13.447 9.413 13.447 9.464 L 13.447 12.332 L 13.447 12.332 L 13.447 12.332 L 13.447 12.332 Z" fill="#333333"/>
			<path d="M 2.901 4.421 L 2.349 4.421 L 2.349 13.929 L 2.901 13.929 C 3.052 13.929 3.177 14.054 3.177 14.206 C 3.177 14.278 3.147 14.348 3.095 14.399 L 1.991 15.503 C 1.939 15.556 1.87 15.585 1.797 15.585 C 1.723 15.585 1.654 15.556 1.603 15.503 L 0.499 14.399 C 0.447 14.347 0.417 14.278 0.417 14.206 C 0.417 14.054 0.542 13.929 0.693 13.929 L 1.245 13.929 L 1.245 4.421 L 0.693 4.421 C 0.542 4.421 0.417 4.296 0.417 4.146 C 0.417 4.072 0.447 4.003 0.499 3.951 L 1.603 2.847 C 1.655 2.795 1.724 2.765 1.797 2.765 C 1.87 2.765 1.939 2.795 1.991 2.847 L 3.095 3.95 C 3.147 4.003 3.177 4.071 3.177 4.145 C 3.177 4.296 3.052 4.421 2.901 4.421 L 2.901 4.421 L 2.901 4.421 Z" fill="#333333"/>
			<path d="M 4.527 0.694 L 4.527 1.247 L 14.035 1.247 L 14.035 0.694 C 14.035 0.544 14.16 0.419 14.31 0.419 C 14.384 0.419 14.453 0.45 14.504 0.501 L 15.608 1.605 C 15.66 1.657 15.69 1.726 15.69 1.799 C 15.69 1.871 15.66 1.942 15.608 1.992 L 14.504 3.097 C 14.452 3.148 14.383 3.179 14.31 3.179 C 14.159 3.179 14.035 3.053 14.035 2.902 L 14.035 2.352 L 4.527 2.352 L 4.527 2.903 C 4.527 3.054 4.402 3.18 4.251 3.18 C 4.177 3.18 4.108 3.149 4.057 3.098 L 2.952 1.992 C 2.9 1.941 2.87 1.871 2.87 1.799 C 2.87 1.726 2.9 1.656 2.952 1.605 L 4.056 0.501 C 4.108 0.45 4.177 0.419 4.25 0.419 C 4.401 0.419 4.527 0.544 4.527 0.694 L 4.527 0.694 L 4.527 0.694 Z" fill="#333333"/>
		</g>
		<g>
			<path d="M 15.661 68.414 C 15.62 68.32 15.546 68.244 15.452 68.206 C 15.358 68.166 15.251 68.166 15.157 68.206 C 15.109 68.225 15.067 68.254 15.032 68.289 L 4.394 78.927 C 4.359 78.961 4.331 79.004 4.311 79.052 C 4.273 79.147 4.273 79.254 4.311 79.347 C 4.35 79.442 4.425 79.517 4.52 79.556 C 4.567 79.577 4.617 79.585 4.667 79.585 L 15.306 79.585 C 15.518 79.585 15.692 79.413 15.692 79.2 L 15.692 68.563 C 15.69 68.511 15.681 68.462 15.661 68.414 L 15.661 68.414 L 15.661 68.414 ZM 13.447 76.332 C 13.447 76.394 13.43 76.45 13.405 76.502 C 13.429 76.553 13.447 76.608 13.447 76.67 C 13.447 76.883 13.275 77.056 13.061 77.056 L 9.855 77.056 C 9.804 77.056 9.754 77.046 9.707 77.027 C 9.613 76.987 9.538 76.912 9.499 76.818 C 9.459 76.725 9.459 76.617 9.499 76.523 C 9.519 76.475 9.547 76.433 9.582 76.396 L 12.788 73.191 C 12.824 73.154 12.866 73.127 12.914 73.106 C 13.008 73.068 13.115 73.068 13.208 73.106 C 13.303 73.146 13.378 73.221 13.417 73.316 C 13.438 73.363 13.447 73.413 13.447 73.464 L 13.447 76.332 L 13.447 76.332 L 13.447 76.332 L 13.447 76.332 Z" fill="#ffffff"/>
			<path d="M 2.901 68.421 L 2.349 68.421 L 2.349 77.929 L 2.901 77.929 C 3.052 77.929 3.177 78.054 3.177 78.206 C 3.177 78.278 3.147 78.348 3.095 78.399 L 1.991 79.503 C 1.939 79.556 1.87 79.585 1.797 79.585 C 1.723 79.585 1.654 79.556 1.603 79.503 L 0.499 78.399 C 0.447 78.347 0.417 78.278 0.417 78.206 C 0.417 78.054 0.542 77.929 0.693 77.929 L 1.245 77.929 L 1.245 68.421 L 0.693 68.421 C 0.542 68.421 0.417 68.296 0.417 68.146 C 0.417 68.072 0.447 68.003 0.499 67.951 L 1.603 66.847 C 1.655 66.795 1.724 66.765 1.797 66.765 C 1.87 66.765 1.939 66.795 1.991 66.847 L 3.095 67.95 C 3.147 68.003 3.177 68.071 3.177 68.145 C 3.177 68.296 3.052 68.421 2.901 68.421 L 2.901 68.421 L 2.901 68.421 Z" fill="#ffffff"/>
			<path d="M 4.527 64.694 L 4.527 65.247 L 14.035 65.247 L 14.035 64.694 C 14.035 64.544 14.16 64.419 14.31 64.419 C 14.384 64.419 14.453 64.45 14.504 64.501 L 15.608 65.605 C 15.66 65.657 15.69 65.726 15.69 65.799 C 15.69 65.871 15.66 65.942 15.608 65.992 L 14.504 67.097 C 14.452 67.148 14.383 67.179 14.31 67.179 C 14.159 67.179 14.035 67.053 14.035 66.902 L 14.035 66.352 L 4.527 66.352 L 4.527 66.903 C 4.527 67.054 4.402 67.18 4.251 67.18 C 4.177 67.18 4.108 67.149 4.057 67.098 L 2.952 65.992 C 2.9 65.941 2.87 65.871 2.87 65.799 C 2.87 65.726 2.9 65.656 2.952 65.605 L 4.056 64.501 C 4.108 64.45 4.177 64.419 4.25 64.419 C 4.401 64.419 4.527 64.544 4.527 64.694 L 4.527 64.694 L 4.527 64.694 Z" fill="#ffffff"/>
		</g>
		<g>
			<path d="M 0.39 23.163 C 0.414 22.714 0.809 22.311 1.271 22.349 C 1.675 22.326 1.986 22.657 2.105 23.014 C 2.132 23.625 2.109 24.238 2.115 24.851 C 2.118 25.021 2.118 25.192 2.124 25.362 C 2.12 25.554 2.116 25.749 2.123 25.941 C 2.114 26.803 2.118 27.667 2.117 28.529 C 2.184 28.529 2.317 28.529 2.383 28.529 C 3.375 28.526 4.366 28.534 5.358 28.524 C 8.228 28.536 11.098 28.526 13.967 28.525 C 14.511 28.542 15.056 28.518 15.6 28.535 C 15.601 28.572 15.605 28.647 15.607 28.684 C 15.607 28.732 15.608 28.828 15.608 28.875 C 15.593 29.802 15.602 30.729 15.597 31.656 C 15.056 31.64 14.512 31.681 13.972 31.636 C 13.978 31.202 13.974 30.77 13.974 30.337 C 13.973 30.29 13.973 30.198 13.973 30.151 C 12.442 30.156 10.913 30.142 9.384 30.156 C 7.798 30.149 6.214 30.145 4.628 30.156 C 3.791 30.148 2.955 30.153 2.117 30.152 C 2.115 30.653 2.117 31.154 2.114 31.655 C 1.544 31.656 0.972 31.652 0.401 31.657 C 0.4 31.618 0.398 31.542 0.396 31.502 C 0.393 30.881 0.392 30.26 0.393 29.638 C 0.396 28.962 0.393 28.286 0.393 27.611 C 0.393 27.52 0.393 27.429 0.393 27.34 C 0.396 26.911 0.391 26.483 0.393 26.054 C 0.396 25.664 0.391 25.275 0.393 24.884 C 0.401 24.311 0.393 23.737 0.39 23.163 L 0.39 23.163 L 0.39 23.163 Z" fill="#333333"/>
			<path d="M 2.474 24.913 C 2.586 24.329 3.076 23.83 3.685 23.795 C 3.752 23.793 3.82 23.793 3.888 23.795 C 4.276 23.835 4.612 24.054 4.865 24.339 C 5.189 24.853 5.147 25.577 4.709 26.01 C 4.241 26.502 3.404 26.509 2.898 26.068 C 2.676 25.832 2.507 25.542 2.481 25.214 C 2.479 25.113 2.476 25.014 2.474 24.913 L 2.474 24.913 L 2.474 24.913 Z" fill="#333333"/>
			<path d="M 6.892 24.253 C 7.873 24.253 8.852 24.252 9.833 24.253 C 10.646 24.255 11.459 24.253 12.273 24.253 C 12.613 24.254 12.964 24.226 13.294 24.332 C 13.645 24.43 13.952 24.643 14.199 24.905 C 14.275 25.007 14.345 25.114 14.426 25.214 C 14.531 25.439 14.614 25.674 14.664 25.918 C 14.678 26.607 14.661 27.296 14.669 27.985 C 12.074 27.975 9.479 27.963 6.885 27.983 C 6.897 26.975 6.881 25.967 6.887 24.96 C 6.89 24.724 6.891 24.488 6.892 24.253 L 6.892 24.253 L 6.892 24.253 Z" fill="#333333"/>
			<path d="M 5.294 24.698 C 5.45 24.536 5.613 24.332 5.859 24.332 C 6.091 24.295 6.28 24.446 6.451 24.576 C 6.514 24.755 6.545 24.943 6.564 25.131 C 6.529 25.957 6.581 26.783 6.531 27.609 C 6.412 27.829 6.211 28.027 5.945 28.025 C 5.363 28.051 4.781 28.027 4.2 28.035 C 3.812 28.023 3.417 28.076 3.038 27.972 C 2.859 27.835 2.746 27.643 2.689 27.427 C 2.724 27.129 2.911 26.809 3.238 26.779 C 3.92 26.753 4.602 26.774 5.284 26.767 C 5.283 26.36 5.286 25.952 5.278 25.544 C 5.275 25.262 5.273 24.979 5.294 24.698 L 5.294 24.698 L 5.294 24.698 Z" fill="#333333"/>
		</g>
		<g>
			<path d="M 0.39 87.163 C 0.414 86.714 0.809 86.311 1.271 86.349 C 1.675 86.326 1.986 86.657 2.105 87.014 C 2.132 87.625 2.109 88.238 2.115 88.851 C 2.118 89.021 2.118 89.192 2.124 89.362 C 2.12 89.554 2.116 89.749 2.123 89.941 C 2.114 90.803 2.118 91.667 2.117 92.529 C 2.184 92.529 2.317 92.529 2.383 92.529 C 3.375 92.526 4.366 92.534 5.358 92.524 C 8.228 92.536 11.098 92.526 13.967 92.525 C 14.511 92.542 15.056 92.518 15.6 92.535 C 15.601 92.572 15.605 92.647 15.607 92.684 C 15.607 92.732 15.608 92.828 15.608 92.875 C 15.593 93.802 15.602 94.729 15.597 95.656 C 15.056 95.64 14.512 95.681 13.972 95.636 C 13.978 95.202 13.974 94.77 13.974 94.337 C 13.973 94.29 13.973 94.198 13.973 94.151 C 12.442 94.156 10.913 94.142 9.384 94.156 C 7.798 94.149 6.214 94.145 4.628 94.156 C 3.791 94.148 2.955 94.153 2.117 94.152 C 2.115 94.653 2.117 95.154 2.114 95.655 C 1.544 95.656 0.972 95.652 0.401 95.657 C 0.4 95.618 0.398 95.542 0.396 95.502 C 0.393 94.881 0.392 94.26 0.393 93.638 C 0.396 92.962 0.393 92.286 0.393 91.611 C 0.393 91.52 0.393 91.429 0.393 91.34 C 0.396 90.911 0.391 90.483 0.393 90.054 C 0.396 89.664 0.391 89.275 0.393 88.884 C 0.401 88.311 0.393 87.737 0.39 87.163 L 0.39 87.163 L 0.39 87.163 Z" fill="#ffffff"/>
			<path d="M 2.474 88.913 C 2.586 88.329 3.076 87.83 3.685 87.795 C 3.752 87.793 3.82 87.793 3.888 87.795 C 4.276 87.835 4.612 88.054 4.865 88.339 C 5.189 88.853 5.147 89.577 4.709 90.01 C 4.241 90.502 3.404 90.509 2.898 90.068 C 2.676 89.832 2.507 89.542 2.481 89.214 C 2.479 89.113 2.476 89.014 2.474 88.913 L 2.474 88.913 L 2.474 88.913 Z" fill="#ffffff"/>
			<path d="M 6.892 88.253 C 7.873 88.253 8.852 88.252 9.833 88.253 C 10.646 88.255 11.459 88.253 12.273 88.253 C 12.613 88.254 12.964 88.226 13.294 88.332 C 13.645 88.43 13.952 88.643 14.199 88.905 C 14.275 89.007 14.345 89.114 14.426 89.214 C 14.531 89.439 14.614 89.674 14.664 89.918 C 14.678 90.607 14.661 91.296 14.669 91.985 C 12.074 91.975 9.479 91.963 6.885 91.983 C 6.897 90.975 6.881 89.967 6.887 88.96 C 6.89 88.724 6.891 88.488 6.892 88.253 L 6.892 88.253 L 6.892 88.253 Z" fill="#ffffff"/>
			<path d="M 5.294 88.698 C 5.45 88.536 5.613 88.332 5.859 88.332 C 6.091 88.295 6.28 88.446 6.451 88.576 C 6.514 88.755 6.545 88.943 6.564 89.131 C 6.529 89.957 6.581 90.783 6.531 91.609 C 6.412 91.829 6.211 92.027 5.945 92.025 C 5.363 92.051 4.781 92.027 4.2 92.035 C 3.812 92.023 3.417 92.076 3.038 91.972 C 2.859 91.835 2.746 91.643 2.689 91.427 C 2.724 91.129 2.911 90.809 3.238 90.779 C 3.92 90.753 4.602 90.774 5.284 90.767 C 5.283 90.36 5.286 89.952 5.278 89.544 C 5.275 89.262 5.273 88.979 5.294 88.698 L 5.294 88.698 L 5.294 88.698 Z" fill="#ffffff"/>
		</g>
		<g>
			<path d="M 11.885 32.721 C 12.234 32.384 12.838 32.369 13.207 32.685 C 13.459 32.892 13.59 33.23 13.559 33.554 C 13.549 35.621 13.557 39.036 13.555 41.105 C 14.211 41.105 14.868 41.104 15.525 41.105 C 15.18 42.413 14.843 43.724 14.497 45.032 C 14.373 45.413 14.259 45.886 13.855 46.06 C 13.48 46.175 13.08 46.12 12.692 46.134 C 12.765 46.605 12.856 47.071 12.928 47.54 C 12.647 47.54 12.366 47.546 12.085 47.536 C 11.992 47.066 11.893 46.598 11.787 46.134 C 9.262 46.133 6.736 46.133 4.209 46.133 C 4.103 46.599 4.005 47.068 3.911 47.536 C 3.63 47.546 3.349 47.54 3.069 47.54 C 3.143 47.072 3.228 46.606 3.308 46.139 C 2.922 46.113 2.522 46.177 2.146 46.061 C 1.741 45.888 1.624 45.415 1.501 45.033 C 1.154 43.724 0.819 42.414 0.473 41.105 C 4.598 41.105 8.723 41.105 12.848 41.105 C 12.849 39.058 12.847 35.666 12.849 33.62 C 12.863 33.497 12.793 33.391 12.744 33.286 C 12.629 33.223 12.492 33.186 12.383 33.284 C 12.07 33.584 11.769 33.894 11.464 34.201 C 11.701 34.463 12.037 34.684 12.097 35.057 C 12.133 35.51 11.84 35.898 11.564 36.227 C 10.68 35.364 9.816 34.479 8.936 33.611 C 8.874 33.551 8.82 33.485 8.769 33.418 C 9.13 33.127 9.567 32.789 10.062 32.92 C 10.422 33.075 10.646 33.419 10.935 33.67 C 11.251 33.353 11.565 33.034 11.885 32.721 L 11.885 32.721 L 11.885 32.721 Z" fill="#333333"/>
			<path d="M 7.56 34.081 C 7.811 33.943 8.063 33.809 8.312 33.665 C 8.445 33.784 8.572 33.91 8.688 34.044 C 8.445 34.191 8.201 34.336 7.958 34.484 C 7.825 34.351 7.692 34.217 7.56 34.081 L 7.56 34.081 L 7.56 34.081 Z" fill="#333333"/>
			<path d="M 6.365 34.742 C 6.631 34.595 6.897 34.447 7.164 34.301 C 7.307 34.43 7.441 34.569 7.577 34.705 C 7.323 34.871 7.059 35.019 6.802 35.18 C 6.655 35.036 6.509 34.89 6.365 34.742 L 6.365 34.742 L 6.365 34.742 Z" fill="#333333"/>
			<path d="M 8.323 34.839 C 8.549 34.682 8.769 34.514 9 34.363 C 9.128 34.49 9.257 34.618 9.383 34.748 C 9.167 34.917 8.948 35.083 8.732 35.254 C 8.593 35.119 8.454 34.982 8.323 34.839 L 8.323 34.839 L 8.323 34.839 Z" fill="#333333"/>
			<path d="M 5.324 35.323 C 5.534 35.189 5.757 35.081 5.972 34.957 C 6.121 35.105 6.271 35.253 6.416 35.406 C 6.208 35.536 5.996 35.661 5.785 35.787 C 5.629 35.634 5.474 35.48 5.324 35.323 L 5.324 35.323 L 5.324 35.323 Z" fill="#333333"/>
			<path d="M 9.042 35.563 C 9.233 35.369 9.426 35.176 9.62 34.985 C 9.751 35.112 9.884 35.238 10.002 35.378 C 9.809 35.566 9.62 35.761 9.427 35.949 C 9.296 35.822 9.167 35.694 9.042 35.563 L 9.042 35.563 L 9.042 35.563 Z" fill="#333333"/>
			<path d="M 7.239 35.615 C 7.472 35.435 7.721 35.276 7.953 35.095 C 8.107 35.222 8.243 35.37 8.384 35.512 C 8.153 35.698 7.915 35.876 7.678 36.056 C 7.531 35.91 7.384 35.764 7.239 35.615 L 7.239 35.615 L 7.239 35.615 Z" fill="#333333"/>
			<path d="M 10.236 35.614 C 10.367 35.742 10.498 35.871 10.621 36.007 C 10.46 36.227 10.312 36.453 10.144 36.666 C 10.008 36.534 9.874 36.399 9.741 36.265 C 9.9 36.043 10.067 35.828 10.236 35.614 L 10.236 35.614 L 10.236 35.614 Z" fill="#333333"/>
			<path d="M 6.292 36.288 C 6.483 36.143 6.684 36.009 6.878 35.868 C 7.034 36.014 7.184 36.168 7.333 36.321 C 7.143 36.458 6.967 36.616 6.77 36.743 C 6.588 36.632 6.45 36.438 6.292 36.288 L 6.292 36.288 L 6.292 36.288 Z" fill="#333333"/>
			<path d="M 8.115 36.484 C 8.323 36.283 8.525 36.075 8.732 35.871 C 8.87 35.99 8.997 36.121 9.121 36.255 C 8.916 36.467 8.706 36.67 8.489 36.868 C 8.362 36.743 8.234 36.617 8.115 36.484 L 8.115 36.484 L 8.115 36.484 Z" fill="#333333"/>
			<path d="M 10.936 36.319 C 11.064 36.458 11.203 36.588 11.324 36.733 C 11.18 36.965 11.065 37.212 10.915 37.441 C 10.779 37.303 10.644 37.167 10.506 37.03 C 10.651 36.795 10.791 36.556 10.936 36.319 L 10.936 36.319 L 10.936 36.319 Z" fill="#333333"/>
			<path d="M 9.465 36.606 C 9.619 36.733 9.753 36.882 9.894 37.023 C 9.725 37.268 9.551 37.512 9.376 37.754 C 9.227 37.608 9.079 37.46 8.934 37.31 C 9.112 37.077 9.295 36.847 9.465 36.606 L 9.465 36.606 L 9.465 36.606 Z" fill="#333333"/>
			<path d="M 7.818 36.807 C 7.943 36.926 8.066 37.048 8.187 37.173 C 8.021 37.346 7.851 37.513 7.681 37.682 C 7.556 37.562 7.434 37.44 7.314 37.315 C 7.48 37.143 7.649 36.975 7.818 36.807 L 7.818 36.807 L 7.818 36.807 Z" fill="#333333"/>
			<path d="M 9.813 38.19 C 9.967 37.93 10.123 37.669 10.281 37.411 C 10.424 37.55 10.565 37.69 10.705 37.832 C 10.555 38.099 10.406 38.364 10.256 38.63 C 10.104 38.487 9.958 38.34 9.813 38.19 L 9.813 38.19 L 9.813 38.19 Z" fill="#333333"/>
			<path d="M 8.238 38.243 C 8.368 38.036 8.516 37.84 8.684 37.661 C 8.826 37.814 8.977 37.959 9.122 38.111 C 8.984 38.307 8.845 38.505 8.704 38.701 C 8.543 38.554 8.395 38.395 8.238 38.243 L 8.238 38.243 L 8.238 38.243 Z" fill="#333333"/>
			<path d="M 9.585 38.569 C 9.736 38.72 9.886 38.87 10.037 39.021 C 9.916 39.238 9.798 39.457 9.666 39.667 C 9.51 39.513 9.351 39.36 9.203 39.199 C 9.333 38.992 9.457 38.779 9.585 38.569 L 9.585 38.569 L 9.585 38.569 Z" fill="#333333"/>
		</g>
		<g>
			<path d="M 11.885 96.721 C 12.234 96.384 12.838 96.369 13.207 96.685 C 13.459 96.892 13.59 97.23 13.559 97.554 C 13.549 99.621 13.557 103.036 13.555 105.105 C 14.211 105.105 14.868 105.104 15.525 105.105 C 15.18 106.413 14.843 107.724 14.497 109.032 C 14.373 109.413 14.259 109.886 13.855 110.06 C 13.48 110.175 13.08 110.12 12.692 110.134 C 12.765 110.605 12.856 111.071 12.928 111.54 C 12.647 111.54 12.366 111.546 12.085 111.536 C 11.992 111.066 11.893 110.598 11.787 110.134 C 9.262 110.133 6.736 110.133 4.209 110.133 C 4.103 110.599 4.005 111.068 3.911 111.536 C 3.63 111.546 3.349 111.54 3.069 111.54 C 3.143 111.072 3.228 110.606 3.308 110.139 C 2.922 110.113 2.522 110.177 2.146 110.061 C 1.741 109.888 1.624 109.415 1.501 109.033 C 1.154 107.724 0.819 106.414 0.473 105.105 C 4.598 105.105 8.723 105.105 12.848 105.105 C 12.849 103.058 12.847 99.666 12.849 97.62 C 12.863 97.497 12.793 97.391 12.744 97.286 C 12.629 97.223 12.492 97.186 12.383 97.284 C 12.07 97.584 11.769 97.894 11.464 98.201 C 11.701 98.463 12.037 98.684 12.097 99.057 C 12.133 99.51 11.84 99.898 11.564 100.227 C 10.68 99.364 9.816 98.479 8.936 97.611 C 8.874 97.551 8.82 97.485 8.769 97.418 C 9.13 97.127 9.567 96.789 10.062 96.92 C 10.422 97.075 10.646 97.419 10.935 97.67 C 11.251 97.353 11.565 97.034 11.885 96.721 L 11.885 96.721 L 11.885 96.721 Z" fill="#ffffff"/>
			<path d="M 7.56 98.081 C 7.811 97.943 8.063 97.809 8.312 97.665 C 8.445 97.784 8.572 97.91 8.688 98.044 C 8.445 98.191 8.201 98.336 7.958 98.484 C 7.825 98.351 7.692 98.217 7.56 98.081 L 7.56 98.081 L 7.56 98.081 Z" fill="#ffffff"/>
			<path d="M 6.365 98.742 C 6.631 98.595 6.897 98.447 7.164 98.301 C 7.307 98.43 7.441 98.569 7.577 98.705 C 7.323 98.871 7.059 99.019 6.802 99.18 C 6.655 99.036 6.509 98.89 6.365 98.742 L 6.365 98.742 L 6.365 98.742 Z" fill="#ffffff"/>
			<path d="M 8.323 98.839 C 8.549 98.682 8.769 98.514 9 98.363 C 9.128 98.49 9.257 98.618 9.383 98.748 C 9.167 98.917 8.948 99.083 8.732 99.254 C 8.593 99.119 8.454 98.982 8.323 98.839 L 8.323 98.839 L 8.323 98.839 Z" fill="#ffffff"/>
			<path d="M 5.324 99.323 C 5.534 99.189 5.757 99.081 5.972 98.957 C 6.121 99.105 6.271 99.253 6.416 99.406 C 6.208 99.536 5.996 99.661 5.785 99.787 C 5.629 99.634 5.474 99.48 5.324 99.323 L 5.324 99.323 L 5.324 99.323 Z" fill="#ffffff"/>
			<path d="M 9.042 99.563 C 9.233 99.369 9.426 99.176 9.62 98.985 C 9.751 99.112 9.884 99.238 10.002 99.378 C 9.809 99.566 9.62 99.761 9.427 99.949 C 9.296 99.822 9.167 99.694 9.042 99.563 L 9.042 99.563 L 9.042 99.563 Z" fill="#ffffff"/>
			<path d="M 7.239 99.615 C 7.472 99.435 7.721 99.276 7.953 99.095 C 8.107 99.222 8.243 99.37 8.384 99.512 C 8.153 99.698 7.915 99.876 7.678 100.056 C 7.531 99.91 7.384 99.764 7.239 99.615 L 7.239 99.615 L 7.239 99.615 Z" fill="#ffffff"/>
			<path d="M 10.236 99.614 C 10.367 99.742 10.498 99.871 10.621 100.007 C 10.46 100.227 10.312 100.453 10.144 100.666 C 10.008 100.534 9.874 100.399 9.741 100.265 C 9.9 100.043 10.067 99.828 10.236 99.614 L 10.236 99.614 L 10.236 99.614 Z" fill="#ffffff"/>
			<path d="M 6.292 100.288 C 6.483 100.143 6.684 100.009 6.878 99.868 C 7.034 100.014 7.184 100.168 7.333 100.321 C 7.143 100.458 6.967 100.616 6.77 100.743 C 6.588 100.632 6.45 100.438 6.292 100.288 L 6.292 100.288 L 6.292 100.288 Z" fill="#ffffff"/>
			<path d="M 8.115 100.484 C 8.323 100.283 8.525 100.075 8.732 99.871 C 8.87 99.99 8.997 100.121 9.121 100.255 C 8.916 100.467 8.706 100.67 8.489 100.868 C 8.362 100.743 8.234 100.617 8.115 100.484 L 8.115 100.484 L 8.115 100.484 Z" fill="#ffffff"/>
			<path d="M 10.936 100.319 C 11.064 100.458 11.203 100.588 11.324 100.733 C 11.18 100.965 11.065 101.212 10.915 101.441 C 10.779 101.303 10.644 101.167 10.506 101.03 C 10.651 100.795 10.791 100.556 10.936 100.319 L 10.936 100.319 L 10.936 100.319 Z" fill="#ffffff"/>
			<path d="M 9.465 100.606 C 9.619 100.733 9.753 100.882 9.894 101.023 C 9.725 101.268 9.551 101.512 9.376 101.754 C 9.227 101.608 9.079 101.46 8.934 101.31 C 9.112 101.077 9.295 100.847 9.465 100.606 L 9.465 100.606 L 9.465 100.606 Z" fill="#ffffff"/>
			<path d="M 7.818 100.807 C 7.943 100.926 8.066 101.048 8.187 101.173 C 8.021 101.346 7.851 101.513 7.681 101.682 C 7.556 101.562 7.434 101.44 7.314 101.315 C 7.48 101.143 7.649 100.975 7.818 100.807 L 7.818 100.807 L 7.818 100.807 Z" fill="#ffffff"/>
			<path d="M 9.813 102.19 C 9.967 101.93 10.123 101.669 10.281 101.411 C 10.424 101.55 10.565 101.69 10.705 101.832 C 10.555 102.099 10.406 102.364 10.256 102.63 C 10.104 102.487 9.958 102.34 9.813 102.19 L 9.813 102.19 L 9.813 102.19 Z" fill="#ffffff"/>
			<path d="M 8.238 102.243 C 8.368 102.036 8.516 101.84 8.684 101.661 C 8.826 101.814 8.977 101.959 9.122 102.111 C 8.984 102.307 8.845 102.505 8.704 102.701 C 8.543 102.554 8.395 102.395 8.238 102.243 L 8.238 102.243 L 8.238 102.243 Z" fill="#ffffff"/>
			<path d="M 9.585 102.569 C 9.736 102.72 9.886 102.87 10.037 103.021 C 9.916 103.238 9.798 103.457 9.666 103.667 C 9.51 103.513 9.351 103.36 9.203 103.199 C 9.333 102.992 9.457 102.779 9.585 102.569 L 9.585 102.569 L 9.585 102.569 Z" fill="#ffffff"/>
		</g>
		<g>
			<path d="M 4.081 50.194 C 4.342 50.12 4.616 50.102 4.886 50.106 C 6.919 50.107 8.952 50.106 10.985 50.106 C 11.258 50.102 11.535 50.115 11.799 50.189 C 12.472 50.367 13.051 50.863 13.33 51.502 C 14.033 53.116 14.719 54.737 15.431 56.348 C 15.516 56.584 15.55 56.837 15.552 57.088 C 15.553 57.652 15.552 58.219 15.552 58.783 C 15.554 59.074 15.523 59.371 15.415 59.644 C 15.185 60.26 14.639 60.743 14 60.896 C 13.989 61.553 13.992 62.213 13.991 62.872 C 13.991 63.137 13.79 63.389 13.528 63.436 L 12.583 63.436 C 12.406 63.391 12.248 63.264 12.181 63.091 C 12.116 62.945 12.133 62.781 12.131 62.626 C 12.13 62.087 12.133 61.549 12.129 61.012 C 9.294 61.011 6.46 61.011 3.625 61.012 C 3.623 61.549 3.625 62.086 3.624 62.625 C 3.623 62.769 3.639 62.92 3.588 63.059 C 3.527 63.248 3.361 63.389 3.171 63.436 L 2.211 63.436 C 1.958 63.373 1.762 63.135 1.764 62.873 C 1.769 62.188 1.748 61.504 1.755 60.818 C 1.012 60.539 0.476 59.794 0.456 58.999 C 0.443 58.327 0.453 57.653 0.451 56.981 C 0.448 56.636 0.526 56.293 0.68 55.987 C 1.305 54.507 1.925 53.024 2.547 51.543 C 2.817 50.892 3.398 50.377 4.081 50.194 L 4.081 50.194 L 4.081 50.194 ZM 4.409 50.843 C 3.894 50.924 3.397 51.239 3.198 51.736 C 2.867 52.569 2.537 53.404 2.207 54.237 C 2.165 54.349 2.111 54.469 2.146 54.59 C 2.172 54.794 2.345 54.954 2.539 55 C 2.626 55.016 2.716 55.009 2.804 55.01 C 6.32 55.009 9.835 55.01 13.349 55.009 C 13.658 55.01 13.923 54.669 13.813 54.373 C 13.435 53.498 13.041 52.63 12.65 51.759 C 12.362 51.148 11.674 50.822 11.022 50.804 C 8.964 50.805 6.907 50.805 4.849 50.804 C 4.701 50.8 4.554 50.821 4.409 50.843 L 4.409 50.843 L 4.409 50.843 ZM 2.387 56.741 C 1.906 56.769 1.485 57.177 1.444 57.655 C 1.419 57.894 1.479 58.138 1.616 58.336 C 1.832 58.666 2.258 58.848 2.644 58.77 C 3.038 58.701 3.378 58.382 3.459 57.988 C 3.546 57.641 3.42 57.255 3.157 57.015 C 2.953 56.825 2.667 56.718 2.387 56.741 L 2.387 56.741 L 2.387 56.741 ZM 13.528 56.74 C 13.039 56.774 12.613 57.197 12.59 57.69 C 12.544 58.164 12.883 58.632 13.342 58.749 C 13.661 58.847 14.02 58.756 14.272 58.541 C 14.581 58.288 14.711 57.844 14.589 57.466 C 14.458 57.017 13.994 56.696 13.528 56.74 L 13.528 56.74 L 13.528 56.74 ZM 5.468 56.941 C 5.359 56.995 5.287 57.112 5.288 57.233 C 5.286 57.409 5.449 57.568 5.625 57.554 C 7.176 57.553 8.728 57.554 10.28 57.554 C 10.455 57.566 10.612 57.402 10.609 57.23 C 10.613 57.056 10.456 56.903 10.283 56.906 C 8.777 56.904 7.272 56.906 5.766 56.905 C 5.666 56.905 5.56 56.895 5.468 56.941 L 5.468 56.941 L 5.468 56.941 ZM 5.531 58.131 C 5.358 58.196 5.267 58.42 5.361 58.586 C 5.42 58.707 5.563 58.771 5.694 58.761 C 7.234 58.76 8.774 58.761 10.313 58.76 C 10.489 58.767 10.652 58.604 10.644 58.427 C 10.642 58.258 10.49 58.104 10.319 58.112 C 8.764 58.112 7.209 58.112 5.655 58.112 C 5.612 58.11 5.571 58.117 5.531 58.131 L 5.531 58.131 L 5.531 58.131 Z" fill="#333333"/>
			<g>
				<path d="M 10.705 52.932 C 10.733 52.935 10.769 52.937 10.81 52.937 C 10.992 52.937 11.148 52.893 11.254 52.792 C 11.335 52.715 11.38 52.603 11.38 52.468 C 11.38 52.334 11.321 52.222 11.233 52.152 C 11.142 52.08 11.006 52.043 10.815 52.043 C 10.627 52.043 10.493 52.055 10.398 52.071 L 10.398 53.42 L 10.704 53.42 L 10.704 52.932 L 10.705 52.932 L 10.705 52.932 ZM 10.705 52.287 C 10.727 52.281 10.769 52.276 10.832 52.276 C 10.986 52.276 11.073 52.349 11.073 52.476 C 11.073 52.617 10.972 52.699 10.807 52.699 C 10.762 52.699 10.73 52.697 10.703 52.69 L 10.705 52.287 L 10.705 52.287 L 10.705 52.287 L 10.705 52.287 Z" fill="#333333"/>
				<path d="M 10.126 53.843 L 11.651 53.843 C 11.843 53.843 12 53.686 12 53.494 L 12 51.968 C 12 51.777 11.844 51.62 11.651 51.62 L 10.126 51.62 C 9.934 51.62 9.777 51.776 9.777 51.968 L 9.777 53.494 C 9.777 53.686 9.934 53.843 10.126 53.843 L 10.126 53.843 L 10.126 53.843 ZM 10.053 51.989 C 10.053 51.937 10.095 51.895 10.148 51.895 L 11.631 51.895 C 11.683 51.895 11.725 51.937 11.725 51.989 L 11.725 53.472 C 11.725 53.524 11.683 53.566 11.631 53.566 L 10.148 53.566 C 10.095 53.566 10.053 53.524 10.053 53.472 L 10.053 51.989 L 10.053 51.989 L 10.053 51.989 Z" fill="#333333"/>
			</g>
		</g>
		<g>
			<path d="M 4.081 114.194 C 4.342 114.12 4.616 114.102 4.886 114.106 C 6.919 114.107 8.952 114.106 10.985 114.106 C 11.258 114.102 11.535 114.115 11.799 114.189 C 12.472 114.367 13.051 114.863 13.33 115.502 C 14.033 117.116 14.719 118.737 15.431 120.348 C 15.516 120.584 15.55 120.837 15.552 121.088 C 15.553 121.652 15.552 122.219 15.552 122.783 C 15.554 123.074 15.523 123.371 15.415 123.644 C 15.185 124.26 14.639 124.743 14 124.896 C 13.989 125.553 13.992 126.213 13.991 126.872 C 13.991 127.137 13.79 127.389 13.528 127.436 L 12.583 127.436 C 12.406 127.391 12.248 127.264 12.181 127.091 C 12.116 126.945 12.133 126.781 12.131 126.626 C 12.13 126.087 12.133 125.549 12.129 125.012 C 9.294 125.011 6.46 125.011 3.625 125.012 C 3.623 125.549 3.625 126.086 3.624 126.625 C 3.623 126.769 3.639 126.92 3.588 127.059 C 3.527 127.248 3.361 127.389 3.171 127.436 L 2.211 127.436 C 1.958 127.373 1.762 127.135 1.764 126.873 C 1.769 126.188 1.748 125.504 1.755 124.818 C 1.012 124.539 0.476 123.794 0.456 122.999 C 0.443 122.327 0.453 121.653 0.451 120.981 C 0.448 120.636 0.526 120.293 0.68 119.987 C 1.305 118.507 1.925 117.024 2.547 115.543 C 2.817 114.892 3.398 114.377 4.081 114.194 L 4.081 114.194 L 4.081 114.194 ZM 4.409 114.843 C 3.894 114.924 3.397 115.239 3.198 115.736 C 2.867 116.569 2.537 117.404 2.207 118.237 C 2.165 118.349 2.111 118.469 2.146 118.59 C 2.172 118.794 2.345 118.954 2.539 119 C 2.626 119.016 2.716 119.009 2.804 119.01 C 6.32 119.009 9.835 119.01 13.349 119.009 C 13.658 119.01 13.923 118.669 13.813 118.373 C 13.435 117.498 13.041 116.63 12.65 115.759 C 12.362 115.148 11.674 114.822 11.022 114.804 C 8.964 114.805 6.907 114.805 4.849 114.804 C 4.701 114.8 4.554 114.821 4.409 114.843 L 4.409 114.843 L 4.409 114.843 ZM 2.387 120.741 C 1.906 120.769 1.485 121.177 1.444 121.655 C 1.419 121.894 1.479 122.138 1.616 122.336 C 1.832 122.666 2.258 122.848 2.644 122.77 C 3.038 122.701 3.378 122.382 3.459 121.988 C 3.546 121.641 3.42 121.255 3.157 121.015 C 2.953 120.825 2.667 120.718 2.387 120.741 L 2.387 120.741 L 2.387 120.741 ZM 13.528 120.74 C 13.039 120.774 12.613 121.197 12.59 121.69 C 12.544 122.164 12.883 122.632 13.342 122.749 C 13.661 122.847 14.02 122.756 14.272 122.541 C 14.581 122.288 14.711 121.844 14.589 121.466 C 14.458 121.017 13.994 120.696 13.528 120.74 L 13.528 120.74 L 13.528 120.74 ZM 5.468 120.941 C 5.359 120.995 5.287 121.112 5.288 121.233 C 5.286 121.409 5.449 121.568 5.625 121.554 C 7.176 121.553 8.728 121.554 10.28 121.554 C 10.455 121.566 10.612 121.402 10.609 121.23 C 10.613 121.056 10.456 120.903 10.283 120.906 C 8.777 120.904 7.272 120.906 5.766 120.905 C 5.666 120.905 5.56 120.895 5.468 120.941 L 5.468 120.941 L 5.468 120.941 ZM 5.531 122.131 C 5.358 122.196 5.267 122.42 5.361 122.586 C 5.42 122.707 5.563 122.771 5.694 122.761 C 7.234 122.76 8.774 122.761 10.313 122.76 C 10.489 122.767 10.652 122.604 10.644 122.427 C 10.642 122.258 10.49 122.104 10.319 122.112 C 8.764 122.112 7.209 122.112 5.655 122.112 C 5.612 122.11 5.571 122.117 5.531 122.131 L 5.531 122.131 L 5.531 122.131 Z" fill="#ffffff"/>
			<g>
				<path d="M 10.705 116.932 C 10.733 116.935 10.769 116.937 10.81 116.937 C 10.992 116.937 11.148 116.893 11.254 116.792 C 11.335 116.715 11.38 116.603 11.38 116.468 C 11.38 116.334 11.321 116.222 11.233 116.152 C 11.142 116.08 11.006 116.043 10.815 116.043 C 10.627 116.043 10.493 116.055 10.398 116.071 L 10.398 117.42 L 10.704 117.42 L 10.704 116.932 L 10.705 116.932 L 10.705 116.932 ZM 10.705 116.287 C 10.727 116.281 10.769 116.276 10.832 116.276 C 10.986 116.276 11.073 116.349 11.073 116.476 C 11.073 116.617 10.972 116.699 10.807 116.699 C 10.762 116.699 10.73 116.697 10.703 116.69 L 10.705 116.287 L 10.705 116.287 L 10.705 116.287 L 10.705 116.287 Z" fill="#ffffff"/>
				<path d="M 10.126 117.843 L 11.651 117.843 C 11.843 117.843 12 117.686 12 117.494 L 12 115.968 C 12 115.777 11.844 115.62 11.651 115.62 L 10.126 115.62 C 9.934 115.62 9.777 115.776 9.777 115.968 L 9.777 117.494 C 9.777 117.686 9.934 117.843 10.126 117.843 L 10.126 117.843 L 10.126 117.843 ZM 10.053 115.989 C 10.053 115.937 10.095 115.895 10.148 115.895 L 11.631 115.895 C 11.683 115.895 11.725 115.937 11.725 115.989 L 11.725 117.472 C 11.725 117.524 11.683 117.566 11.631 117.566 L 10.148 117.566 C 10.095 117.566 10.053 117.524 10.053 117.472 L 10.053 115.989 L 10.053 115.989 L 10.053 115.989 Z" fill="#ffffff"/>
			</g>
		</g>
	</g>
</svg>